<svg width="18px" height="17px" viewBox="0 0 18 17" version="1.1" xmlns="http://www.w3.org/2000/svg" xmlns:xlink="http://www.w3.org/1999/xlink">
                                        <g id="Symbols" stroke="none" stroke-width="1" fill="none" fill-rule="evenodd">
                                            <g id="header" transform="translate(-980.000000, -30.000000)">
                                                <g id="Group" transform="translate(129.000000, 0.000000)">
                                                    <g id="2" transform="translate(496.000000, 30.000000)">
                                                        <g id="Монтаж" transform="translate(355.000000, 0.000000)">
                                                            <g id="ico">
                                                                <path d="M16.7480649,15.5077793 L8.93325379,9.78593592 C8.78255779,9.67561873 8.57783019,9.67561873 8.42719859,9.78593592 L0.612323053,15.5077793 C0.421441454,15.6475595 0.379967855,15.9155923 0.519748053,16.1064739 C0.659528252,16.2973555 0.92759325,16.3387647 1.11844265,16.1990489 L8.68019399,10.6624521 L16.2419453,16.1990167 C16.3181949,16.2548837 16.4068093,16.2817707 16.4946509,16.2817707 C16.6265421,16.2817707 16.7566945,16.2210737 16.8406077,16.1064417 C16.9804201,15.9155923 16.9389465,15.6475595 16.7480649,15.5077793 Z" id="Shape" fill="#1A1A1A" fill-rule="nonzero"></path>
                                                                <g class="bonus-layer" id="Group-8" transform="translate(14.231167, 5.841006) rotate(-59.000000) translate(-14.231167, -5.841006) translate(11.231167, 1.341006)" stroke="#1A1A1A" stroke-width="0.8">
                                                                    <rect id="Rectangle-4" x="0" y="-1.98951966e-13" width="6" height="4" rx="1"></rect>
                                                                    <path d="M3,4.5 L3,8.5" id="Line-16" stroke-linecap="round" stroke-linejoin="round"></path>
                                                                </g>
                                                            </g>
                                                        </g>
                                                    </g>
                                                </g>
                                            </g>
                                        </g>
                                    </svg>